<svg width="255" height="55" viewBox="0 0 255 55" fill="none" xmlns="http://www.w3.org/2000/svg">
<path d="M46.9526 21.1377C46.4885 20.6736 46.2588 20.11 46.2588 19.4399C46.2588 18.7698 46.4909 18.2039 46.9526 17.7422C47.4167 17.2781 47.9802 17.0484 48.6503 17.0484C49.3205 17.0484 49.839 17.2804 50.2913 17.7422C50.7412 18.2063 50.9661 18.7722 50.9661 19.4399C50.9661 20.1077 50.7412 20.6759 50.2913 21.1377C49.8414 21.6018 49.2944 21.8315 48.6503 21.8315C48.0063 21.8315 47.4143 21.5994 46.9526 21.1377ZM50.3481 25.2673V46.417H46.8365V25.2673H50.3481Z" fill="white"/>
<path d="M71.4004 27.216C72.9964 28.774 73.7944 31.0164 73.7944 33.9502V46.417H70.3207V34.4522C70.3207 32.3424 69.7927 30.7275 68.739 29.6075C67.6829 28.4875 66.2432 27.9287 64.4176 27.9287C62.592 27.9287 61.0931 28.5065 59.9992 29.6644C58.9052 30.8222 58.3582 32.5082 58.3582 34.7197V46.4146H54.8467V25.2649H58.3582V28.2744C59.052 27.1947 59.9992 26.3588 61.1949 25.7669C62.3907 25.1749 63.7096 24.8789 65.1516 24.8789C67.7231 24.8789 69.8092 25.6579 71.4028 27.2136L71.4004 27.216Z" fill="white"/>
<path d="M94.4307 27.216C96.0266 28.774 96.8246 31.0164 96.8246 33.9502V46.417H93.351V34.4522C93.351 32.3424 92.8229 30.7275 91.7692 29.6075C90.7132 28.4875 89.2735 27.9287 87.4479 27.9287C85.6222 27.9287 84.1234 28.5065 83.0294 29.6644C81.9355 30.8222 81.3885 32.5082 81.3885 34.7197V46.4146H77.877V25.2649H81.3885V28.2744C82.0823 27.1947 83.0294 26.3588 84.2252 25.7669C85.421 25.1749 86.7399 24.8789 88.1819 24.8789C90.7534 24.8789 92.8395 25.6579 94.4331 27.2136L94.4307 27.216Z" fill="white"/>
<path d="M106.123 45.4131C104.515 44.5133 103.253 43.2323 102.342 41.5724C101.428 39.9125 100.971 37.9898 100.971 35.8019C100.971 33.614 101.44 31.7292 102.38 30.0693C103.32 28.4094 104.598 27.1355 106.22 26.2499C107.842 25.362 109.656 24.9192 111.662 24.9192C113.667 24.9192 115.483 25.362 117.103 26.2499C118.725 27.1379 120.004 28.4047 120.944 30.0503C121.884 31.6984 122.353 33.614 122.353 35.8019C122.353 37.9898 121.869 39.9125 120.906 41.5724C119.942 43.2323 118.635 44.5109 116.989 45.4131C115.341 46.3129 113.516 46.7651 111.51 46.7651C109.504 46.7651 107.733 46.3152 106.126 45.4131H106.123ZM115.057 42.7895C116.163 42.1975 117.058 41.3096 117.74 40.1256C118.422 38.9417 118.763 37.502 118.763 35.8043C118.763 34.1065 118.429 32.6645 117.759 31.4805C117.089 30.2966 116.215 29.4158 115.135 28.838C114.056 28.2579 112.883 27.969 111.624 27.969C110.364 27.969 109.159 28.2579 108.093 28.838C107.025 29.4158 106.171 30.299 105.526 31.4805C104.882 32.6645 104.563 34.1041 104.563 35.8043C104.563 37.5044 104.878 38.9819 105.508 40.1659C106.137 41.3498 106.98 42.2306 108.036 42.8084C109.09 43.3885 110.248 43.6774 111.51 43.6774C112.772 43.6774 113.954 43.3814 115.062 42.7895H115.057Z" fill="white"/>
<path d="M130.107 45.934C128.821 45.3823 127.803 44.6104 127.057 43.6182C126.311 42.6285 125.899 41.4895 125.821 40.2038H129.449C129.551 41.2598 130.048 42.1217 130.936 42.7895C131.824 43.4596 132.986 43.7935 134.428 43.7935C135.766 43.7935 136.822 43.4975 137.594 42.9055C138.366 42.3135 138.752 41.5677 138.752 40.6679C138.752 39.7681 138.34 39.053 137.516 38.6031C136.692 38.1532 135.418 37.7104 133.694 37.2723C132.125 36.8603 130.844 36.4436 129.854 36.0174C128.864 35.5935 128.014 34.9613 127.306 34.1255C126.598 33.2896 126.245 32.1909 126.245 30.8246C126.245 29.7449 126.567 28.7527 127.209 27.853C127.851 26.9532 128.765 26.2381 129.948 25.71C131.132 25.1844 132.482 24.9192 134 24.9192C136.342 24.9192 138.231 25.5112 139.673 26.6951C141.113 27.879 141.885 29.501 141.989 31.5587H138.478C138.399 30.4529 137.957 29.5649 137.147 28.8948C136.337 28.2271 135.25 27.8908 133.886 27.8908C132.624 27.8908 131.623 28.1608 130.877 28.7007C130.131 29.2405 129.757 29.9485 129.757 30.8223C129.757 31.5161 129.982 32.0891 130.432 32.539C130.881 32.9889 131.447 33.3488 132.129 33.6187C132.811 33.8887 133.756 34.1917 134.966 34.5256C136.484 34.9376 137.72 35.3425 138.672 35.7403C139.624 36.1405 140.441 36.7372 141.122 37.5352C141.804 38.3331 142.157 39.375 142.183 40.6608C142.183 41.8187 141.861 42.8605 141.217 43.7863C140.573 44.7122 139.666 45.4391 138.496 45.9671C137.324 46.4952 135.982 46.758 134.464 46.758C132.842 46.758 131.388 46.481 130.102 45.9293L130.107 45.934Z" fill="white"/>
<path d="M147.128 30.0717C148.002 28.4379 149.219 27.171 150.774 26.2712C152.33 25.3715 154.113 24.9216 156.119 24.9216C158.716 24.9216 160.859 25.5514 162.545 26.8135C164.231 28.0732 165.344 29.823 165.884 32.063H162.102C161.742 30.7773 161.041 29.7615 160 29.0132C158.958 28.2673 157.665 27.8932 156.121 27.8932C154.113 27.8932 152.493 28.5823 151.257 29.958C150.021 31.3337 149.406 33.2825 149.406 35.8043C149.406 38.3261 150.024 40.3198 151.257 41.7097C152.493 43.0997 154.113 43.7935 156.121 43.7935C157.665 43.7935 158.951 43.4335 159.981 42.7137C161.008 41.9939 161.716 40.9639 162.102 39.626H165.884C165.318 41.7879 164.186 43.5188 162.488 44.8164C160.79 46.1163 158.666 46.7651 156.121 46.7651C154.113 46.7651 152.332 46.3152 150.777 45.4131C149.219 44.5133 148.004 43.2394 147.13 41.5913C146.254 39.9457 145.818 38.0159 145.818 35.8019C145.818 33.588 146.256 31.7055 147.13 30.0693L147.128 30.0717Z" fill="white"/>
<path d="M176.709 25.8853C177.853 25.2175 179.25 24.8813 180.896 24.8813V28.5088H179.97C176.034 28.5088 174.064 30.6447 174.064 34.9163V46.417H170.553V25.2673H174.064V28.703C174.682 27.493 175.563 26.5554 176.709 25.8853Z" fill="white"/>
<path d="M185.284 21.1377C184.82 20.6736 184.59 20.11 184.59 19.4399C184.59 18.7698 184.822 18.2039 185.284 17.7422C185.748 17.2781 186.311 17.0484 186.981 17.0484C187.651 17.0484 188.17 17.2804 188.622 17.7422C189.072 18.2063 189.297 18.7722 189.297 19.4399C189.297 20.1077 189.072 20.6759 188.622 21.1377C188.172 21.6018 187.625 21.8315 186.981 21.8315C186.337 21.8315 185.745 21.5994 185.284 21.1377ZM188.679 25.2673V46.417H185.168V25.2673H188.679Z" fill="white"/>
<path d="M201.064 26.1363C202.439 25.3264 204.042 24.9216 205.868 24.9216C207.694 24.9216 209.45 25.3715 210.982 26.2712C212.512 27.1734 213.715 28.4402 214.591 30.0717C215.465 31.7055 215.903 33.6022 215.903 35.764C215.903 37.9259 215.465 39.8036 214.591 41.4753C213.717 43.147 212.512 44.447 210.982 45.3728C209.45 46.2987 207.746 46.7628 205.868 46.7628C203.99 46.7628 202.477 46.3579 201.101 45.5481C199.726 44.7382 198.677 43.7272 197.957 42.5195V54.9106H194.445V25.2673H197.957V29.1648C198.651 27.9548 199.688 26.9461 201.064 26.1363ZM211.35 31.5966C210.705 30.4126 209.839 29.5128 208.745 28.8948C207.651 28.2768 206.448 27.969 205.136 27.969C203.824 27.969 202.659 28.2839 201.566 28.9138C200.472 29.5436 199.598 30.4576 198.942 31.6534C198.286 32.8492 197.957 34.232 197.957 35.8019C197.957 37.3718 198.286 38.7925 198.942 39.9883C199.598 41.1841 200.472 42.0981 201.566 42.7279C202.659 43.3578 203.848 43.6727 205.136 43.6727C206.424 43.6727 207.651 43.3578 208.745 42.7279C209.839 42.0981 210.705 41.1841 211.35 39.9883C211.991 38.7925 212.313 37.3836 212.313 35.7616C212.313 34.1397 211.991 32.7781 211.35 31.5942V31.5966Z" fill="white"/>
<path d="M224.818 28.1608V40.6276C224.818 41.6577 225.035 42.3846 225.473 42.8084C225.912 43.2323 226.669 43.4454 227.751 43.4454H230.337V46.4171H227.171C225.215 46.4171 223.75 45.9672 222.772 45.065C221.794 44.1652 221.306 42.6853 221.306 40.6276V28.1608H218.566V25.2673H221.306V19.942H224.818V25.2673H230.337V28.1608H224.818Z" fill="white"/>
<path d="M234.583 30.0717C235.457 28.4379 236.659 27.171 238.192 26.2712C239.721 25.3715 241.426 24.9216 243.306 24.9216C245.186 24.9216 246.766 25.3217 248.129 26.1173C249.493 26.9153 250.509 27.9193 251.179 29.1269V25.2673H254.729V46.417H251.179V42.4817C250.485 43.7153 249.448 44.7406 248.073 45.5504C246.697 46.3602 245.094 46.7651 243.268 46.7651C241.443 46.7651 239.693 46.301 238.175 45.3752C236.657 44.4493 235.459 43.1494 234.585 41.4777C233.709 39.806 233.273 37.9022 233.273 35.7664C233.273 33.6306 233.712 31.7079 234.585 30.074L234.583 30.0717ZM250.213 31.6345C249.569 30.4505 248.702 29.5436 247.609 28.9138C246.515 28.2839 245.312 27.969 244 27.969C242.688 27.969 241.492 28.2768 240.41 28.8948C239.33 29.5128 238.466 30.4126 237.825 31.5966C237.18 32.7805 236.861 34.1704 236.861 35.764C236.861 37.3576 237.183 38.7925 237.825 39.9907C238.466 41.1864 239.33 42.1004 240.41 42.7303C241.49 43.3601 242.688 43.6751 244 43.6751C245.312 43.6751 246.515 43.3601 247.609 42.7303C248.702 42.1004 249.569 41.1864 250.213 39.9907C250.855 38.7949 251.179 37.3979 251.179 35.8043C251.179 34.2107 250.857 32.8208 250.213 31.6368V31.6345Z" fill="white"/>
<path d="M24.2112 39.9385C18.9688 36.8864 13.0065 35.03 6.65115 34.509C6.60142 34.5043 6.56827 34.5564 6.58958 34.599L7.70484 36.8863C7.85165 37.1847 8.12159 37.4191 8.45072 37.4641C13.7879 38.2076 18.8741 40.0498 23.2949 42.7208C23.3257 42.7397 23.3659 42.7279 23.3825 42.6947L24.4196 40.6418C24.5475 40.3908 24.4575 40.0806 24.2136 39.9385H24.2112Z" fill="#2B8AAF"/>
<path d="M24.2582 39.9693C23.9125 39.7586 23.6923 39.6426 23.6923 39.6426C23.6923 39.6426 24.0451 39.9054 24.0664 40.102C24.0948 40.3482 23.7681 40.4358 23.7681 40.4358L22.3521 40.7957C19.1436 41.5369 15.767 41.9418 12.362 41.9418C11.8103 41.9418 11.242 41.9323 10.6856 41.911C10.4772 41.9039 10.3943 42.1004 10.4867 42.2875L11.493 44.3783C11.6162 44.6222 11.834 44.7738 12.1087 44.7738C12.1916 44.7738 12.2768 44.7738 12.3597 44.7738C15.876 44.7738 19.307 44.3831 22.6054 43.6419C22.8233 43.5922 23.008 43.4477 23.1098 43.2488L24.1682 41.1509L24.3056 40.8786L24.4666 40.5589C24.4666 40.5589 24.6371 40.199 24.2582 39.9693Z" fill="white"/>
<path d="M18.5523 52.3035L13.3691 41.9323C12.2206 41.9536 11.2735 41.9181 10.7289 41.8897C10.5039 41.8778 10.3524 42.1122 10.4542 42.3135L16.6296 54.6169C16.7859 54.9295 17.2334 54.9295 17.3897 54.6169L18.5499 52.3035H18.5523Z" fill="white"/>
<path d="M19.9613 48.4155C17.9462 48.7186 15.872 48.908 13.793 48.9649L16.7268 54.8064C16.8428 55.0385 17.1767 55.0385 17.2927 54.8064L20.2809 48.8536C20.3922 48.631 20.2075 48.3776 19.9613 48.4155Z" fill="white"/>
<path d="M6.51401 34.4688L8.35384 34.6393C8.74453 34.6677 9.21338 34.7008 9.76272 34.7316C10.6199 34.7908 11.4723 34.8216 12.3437 34.8216C16.7787 34.8216 21.1048 34.0094 25.0473 32.5697C25.2746 32.4869 25.4593 32.3187 25.5659 32.1033L28.8904 25.459C29.7996 23.6405 30.491 21.7202 30.903 19.7288C31.0641 18.9498 31.1777 18.1778 31.1777 17.5527C31.1777 7.21224 20.0464 -0.743775 9.29388 5.6471C7.60085 6.65344 6.26775 8.14282 5.18327 9.74823C2.14766 14.2448 2.30394 19.7217 4.25743 23.7352L4.22664 23.6784L4.34031 23.9057C4.36398 23.9531 4.3853 23.9981 4.40898 24.0454L7.53693 30.254C5.97177 30.048 5.21878 29.9485 4.66233 29.8656C4.33083 29.8159 4.04669 29.6075 3.90225 29.3044L3.59206 28.658L1.76643 25.0186L1.74986 24.9855C0.655903 22.7407 0 20.2189 0 17.5527C0 5.28953 13.2364 -4.12983 25.6937 2.91694C27.9858 4.21453 30.2211 6.36691 31.611 8.85554C34.6135 14.2306 34.5638 19.7667 32.6411 24.249L32.6055 24.3272L29.4231 30.6352L27.5478 34.3693C27.4436 34.5753 27.2707 34.7387 27.0553 34.824C22.5042 36.6496 17.5364 37.6535 12.3413 37.6535C11.039 37.6535 9.75088 37.5896 8.47933 37.4665C8.15493 37.4357 7.87079 37.2344 7.72635 36.9432L6.50927 34.4688H6.51401Z" fill="white"/>
</svg>
